<?xml version="1.0" encoding="utf-8"?>
<!-- Generator: Adobe Illustrator 26.0.2, SVG Export Plug-In . SVG Version: 6.00 Build 0)  -->
<svg version="1.1" id="Layer_1" xmlns="http://www.w3.org/2000/svg" xmlns:xlink="http://www.w3.org/1999/xlink" x="0px" y="0px"
	 viewBox="0 0 1280 720" style="enable-background:new 0 0 1280 720;" xml:space="preserve">
<style type="text/css">
	.st0{fill:#F2F4F8;}
	.st1{enable-background:new    ;}
	.st2{fill:#262626;}
	.st3{fill:none;stroke:#000000;stroke-width:0.1458;stroke-miterlimit:5.83;}
	.st4{fill:none;}
	.st5{fill:none;stroke:#000000;stroke-width:2;stroke-miterlimit:10;}
	.st6{fill:none;stroke:#000000;stroke-width:0.25;stroke-miterlimit:10;}
</style>
<g>
	<rect y="0.4" class="st0" width="1280" height="720"/>
	<g>
		<g>
			<g class="st1">
				<path class="st2" d="M70.9,370v-2.2h4.6v-26.9h-4.6v-2.2h11.9v2.2h-4.6v26.9h4.6v2.2H70.9z"/>
				<path class="st2" d="M89.8,370v-23h2.6v3.6h0.1c0.5-1.2,1.3-2.2,2.4-3s2.5-1.2,4.4-1.2c2.5,0,4.4,0.8,5.7,2.3
					c1.4,1.5,2,3.7,2,6.5V370h-2.6v-14.3c0-2.3-0.5-4.1-1.5-5.2c-1-1.1-2.5-1.7-4.4-1.7c-0.8,0-1.6,0.1-2.3,0.3s-1.4,0.5-2,0.9
					c-0.6,0.4-1,1-1.4,1.6c-0.3,0.6-0.5,1.4-0.5,2.2V370H89.8z"/>
				<path class="st2" d="M116.2,349.2h-4V347h4v-6.4c0-1.2,0.3-2.1,0.9-2.8c0.6-0.7,1.5-1,2.7-1h4v2.2h-5.1v8h5.1v2.2h-5.1V370h-2.6
					V349.2z"/>
				<path class="st2" d="M137,370.6c-1.5,0-2.9-0.3-4.1-0.8c-1.2-0.5-2.3-1.3-3.1-2.4c-0.9-1-1.5-2.3-2-3.8
					c-0.5-1.5-0.7-3.2-0.7-5.1c0-1.9,0.2-3.6,0.7-5.1c0.5-1.5,1.2-2.7,2-3.8s1.9-1.8,3.1-2.4c1.2-0.6,2.6-0.8,4.1-0.8
					c1.5,0,2.9,0.3,4.1,0.8c1.2,0.6,2.3,1.3,3.1,2.4c0.9,1,1.5,2.3,2,3.8c0.5,1.5,0.7,3.2,0.7,5.1c0,1.9-0.2,3.6-0.7,5.1
					c-0.5,1.5-1.2,2.8-2,3.8c-0.9,1-1.9,1.8-3.1,2.4C139.9,370.3,138.5,370.6,137,370.6z M137,368.3c2.2,0,4-0.7,5.3-2.1
					s2-3.5,2-6.2v-2.9c0-2.7-0.7-4.8-2-6.2s-3.1-2.1-5.3-2.1c-2.2,0-4,0.7-5.3,2.1c-1.3,1.4-2,3.5-2,6.2v2.9c0,2.7,0.7,4.8,2,6.2
					C133,367.6,134.7,368.3,137,368.3z"/>
				<path class="st2" d="M153.5,370v-23h2.6v4.1h0.2c0.4-1.1,1.2-2,2.3-2.9c1.1-0.8,2.6-1.3,4.6-1.3h1.5v2.5h-2
					c-1.9,0-3.5,0.4-4.7,1.3c-1.2,0.8-1.8,2-1.8,3.5V370H153.5z"/>
				<path class="st2" d="M169.6,370v-23h2.6v3.6h0.1c0.2-0.6,0.5-1.1,0.9-1.6c0.4-0.5,0.8-0.9,1.3-1.3c0.5-0.4,1.1-0.7,1.8-0.9
					c0.7-0.2,1.5-0.3,2.5-0.3c1.6,0,3.1,0.4,4.4,1.2s2.2,2,2.7,3.7h0.1c0.4-1.3,1.2-2.5,2.4-3.4c1.2-0.9,2.8-1.4,4.8-1.4
					c2.5,0,4.3,0.8,5.7,2.3c1.3,1.5,2,3.7,2,6.5V370h-2.6v-14.3c0-4.6-1.9-6.9-5.8-6.9c-0.8,0-1.6,0.1-2.3,0.3s-1.4,0.5-1.9,1
					c-0.6,0.4-1,1-1.3,1.6c-0.3,0.6-0.5,1.4-0.5,2.2V370h-2.6v-14.3c0-4.6-1.9-6.9-5.8-6.9c-0.8,0-1.5,0.1-2.3,0.3
					c-0.7,0.2-1.4,0.5-2,0.9c-0.6,0.4-1,1-1.3,1.6c-0.3,0.6-0.5,1.4-0.5,2.2V370H169.6z"/>
				<path class="st2" d="M224.8,370c-1,0-1.7-0.3-2.2-0.8c-0.4-0.5-0.7-1.2-0.8-2.1v-0.8h-0.2c-0.5,1.3-1.3,2.3-2.5,3.1
					c-1.2,0.7-2.7,1.1-4.4,1.1c-2.4,0-4.3-0.6-5.6-1.8c-1.3-1.2-2-2.9-2-5c0-2,0.7-3.7,2.2-4.9c1.5-1.2,3.8-1.8,7.2-1.8h5.3v-2.7
					c0-3.8-2-5.7-5.9-5.7c-1.5,0-2.8,0.3-3.8,1c-1,0.6-1.8,1.6-2.5,2.8l-1.6-1.3c0.6-1.3,1.6-2.4,2.9-3.3c1.3-0.9,3-1.3,5.1-1.3
					c2.7,0,4.8,0.7,6.2,2c1.4,1.4,2.2,3.2,2.2,5.7v13.6h3.1v2.2H224.8z M215,368.4c0.9,0,1.8-0.1,2.6-0.4c0.8-0.2,1.5-0.6,2.1-1
					c0.6-0.4,1.1-1,1.4-1.6c0.3-0.6,0.5-1.3,0.5-2.1V359h-5.4c-2.3,0-4,0.4-5,1.1c-1,0.7-1.6,1.8-1.6,3v1.1c0,1.4,0.5,2.4,1.4,3.1
					C212.1,368,213.4,368.4,215,368.4z"/>
				<path class="st2" d="M236.7,370c-0.9,0-1.6-0.3-2.1-0.8c-0.5-0.5-0.7-1.2-0.7-2.1v-18h-4V347h2.6c0.6,0,1.1-0.1,1.3-0.4
					c0.2-0.3,0.3-0.7,0.3-1.4v-4.7h2.3v6.4h5.2v2.2h-5.2v18.6h4.9v2.2H236.7z"/>
				<path class="st2" d="M249,340.8c-0.6,0-1-0.1-1.3-0.4c-0.3-0.3-0.4-0.7-0.4-1.2v-0.4c0-0.5,0.1-0.9,0.4-1.2
					c0.3-0.3,0.7-0.5,1.3-0.5c0.6,0,1,0.2,1.3,0.5c0.3,0.3,0.4,0.7,0.4,1.2v0.4c0,0.5-0.1,0.9-0.4,1.2
					C250.1,340.6,249.6,340.8,249,340.8z M247.8,347h2.6v23h-2.6V347z"/>
				<path class="st2" d="M266.9,370.6c-1.5,0-2.9-0.3-4.1-0.8c-1.2-0.5-2.3-1.3-3.1-2.4c-0.9-1-1.5-2.3-2-3.8
					c-0.5-1.5-0.7-3.2-0.7-5.1c0-1.9,0.2-3.6,0.7-5.1c0.5-1.5,1.2-2.7,2-3.8s1.9-1.8,3.1-2.4c1.2-0.6,2.6-0.8,4.1-0.8
					c1.5,0,2.9,0.3,4.1,0.8c1.2,0.6,2.3,1.3,3.1,2.4c0.9,1,1.5,2.3,2,3.8c0.5,1.5,0.7,3.2,0.7,5.1c0,1.9-0.2,3.6-0.7,5.1
					c-0.5,1.5-1.2,2.8-2,3.8c-0.9,1-1.9,1.8-3.1,2.4C269.8,370.3,268.4,370.6,266.9,370.6z M266.9,368.3c2.2,0,4-0.7,5.3-2.1
					s2-3.5,2-6.2v-2.9c0-2.7-0.7-4.8-2-6.2s-3.1-2.1-5.3-2.1c-2.2,0-4,0.7-5.3,2.1c-1.3,1.4-2,3.5-2,6.2v2.9c0,2.7,0.7,4.8,2,6.2
					C262.8,367.6,264.6,368.3,266.9,368.3z"/>
				<path class="st2" d="M283.4,370v-23h2.6v3.6h0.1c0.5-1.2,1.3-2.2,2.4-3s2.5-1.2,4.4-1.2c2.5,0,4.4,0.8,5.7,2.3
					c1.4,1.5,2,3.7,2,6.5V370h-2.6v-14.3c0-2.3-0.5-4.1-1.5-5.2c-1-1.1-2.5-1.7-4.4-1.7c-0.8,0-1.6,0.1-2.3,0.3s-1.4,0.5-2,0.9
					c-0.6,0.4-1,1-1.4,1.6c-0.3,0.6-0.5,1.4-0.5,2.2V370H283.4z"/>
				<path class="st2" d="M340,365.3h-0.1c-0.6,1.6-1.6,2.9-3.2,3.9s-3.6,1.4-6,1.4c-1.9,0-3.7-0.3-5.3-1c-1.6-0.7-2.9-1.7-4-3.1
					c-1.1-1.4-1.9-3.1-2.5-5.1c-0.6-2-0.9-4.3-0.9-7c0-2.6,0.3-5,0.9-7c0.6-2,1.5-3.7,2.6-5.1c1.1-1.4,2.5-2.4,4-3.1
					c1.6-0.7,3.4-1.1,5.3-1.1c2.7,0,5,0.6,6.8,1.8c1.8,1.2,3.2,2.8,4.2,4.8l-2.2,1.3c-0.8-1.7-1.9-3.1-3.4-4.1
					c-1.5-1-3.3-1.5-5.3-1.5c-1.5,0-2.9,0.3-4.1,0.8c-1.2,0.5-2.3,1.3-3.1,2.3c-0.9,1-1.5,2.3-2,3.7c-0.5,1.5-0.7,3.1-0.7,5v3.8
					c0,3.8,0.9,6.7,2.7,8.8c1.8,2.1,4.3,3.1,7.5,3.1c1.2,0,2.3-0.2,3.4-0.5c1.1-0.3,2-0.8,2.8-1.4s1.4-1.4,1.9-2.4
					c0.5-1,0.7-2.1,0.7-3.4v-3.8h-7.3v-2.4h10V370H340V365.3z"/>
				<path class="st2" d="M365.9,370c-1,0-1.7-0.3-2.2-0.8c-0.4-0.5-0.7-1.2-0.8-2.1v-0.8h-0.2c-0.5,1.3-1.3,2.3-2.5,3.1
					c-1.2,0.7-2.7,1.1-4.4,1.1c-2.4,0-4.3-0.6-5.6-1.8c-1.3-1.2-2-2.9-2-5c0-2,0.7-3.7,2.2-4.9c1.5-1.2,3.8-1.8,7.2-1.8h5.3v-2.7
					c0-3.8-2-5.7-5.9-5.7c-1.5,0-2.8,0.3-3.8,1c-1,0.6-1.8,1.6-2.5,2.8l-1.6-1.3c0.6-1.3,1.6-2.4,2.9-3.3c1.3-0.9,3-1.3,5.1-1.3
					c2.7,0,4.8,0.7,6.2,2c1.4,1.4,2.2,3.2,2.2,5.7v13.6h3.1v2.2H365.9z M356.1,368.4c0.9,0,1.8-0.1,2.6-0.4c0.8-0.2,1.5-0.6,2.1-1
					c0.6-0.4,1.1-1,1.4-1.6c0.3-0.6,0.5-1.3,0.5-2.1V359h-5.4c-2.3,0-4,0.4-5,1.1c-1,0.7-1.6,1.8-1.6,3v1.1c0,1.4,0.5,2.4,1.4,3.1
					C353.3,368,354.5,368.4,356.1,368.4z"/>
				<path class="st2" d="M375,340.8c-0.6,0-1-0.1-1.3-0.4c-0.3-0.3-0.4-0.7-0.4-1.2v-0.4c0-0.5,0.1-0.9,0.4-1.2
					c0.3-0.3,0.7-0.5,1.3-0.5c0.6,0,1,0.2,1.3,0.5c0.3,0.3,0.4,0.7,0.4,1.2v0.4c0,0.5-0.1,0.9-0.4,1.2
					C376,340.6,375.6,340.8,375,340.8z M373.7,347h2.6v23h-2.6V347z"/>
				<path class="st2" d="M384.7,370v-23h2.6v3.6h0.1c0.5-1.2,1.3-2.2,2.4-3s2.5-1.2,4.4-1.2c2.5,0,4.4,0.8,5.7,2.3
					c1.4,1.5,2,3.7,2,6.5V370h-2.6v-14.3c0-2.3-0.5-4.1-1.5-5.2c-1-1.1-2.5-1.7-4.4-1.7c-0.8,0-1.6,0.1-2.3,0.3s-1.4,0.5-2,0.9
					c-0.6,0.4-1,1-1.4,1.6c-0.3,0.6-0.5,1.4-0.5,2.2V370H384.7z"/>
				<path class="st2" d="M409.9,356c0-2.2,0.2-4.3,0.7-6.3c0.4-2,1-3.9,1.8-5.6c0.7-1.7,1.6-3.3,2.6-4.7c1-1.4,2-2.6,3.1-3.5h2.5
					c-1.2,1.1-2.3,2.3-3.3,3.7s-1.9,2.9-2.6,4.6c-0.7,1.6-1.3,3.3-1.7,5.1c-0.4,1.8-0.6,3.5-0.6,5.3v3c0,1.8,0.2,3.5,0.6,5.3
					c0.4,1.8,1,3.5,1.8,5.1c0.7,1.6,1.6,3.2,2.6,4.6s2.1,2.6,3.3,3.7h-2.5c-1.1-0.9-2.1-2.1-3.1-3.5c-1-1.4-1.9-3-2.6-4.7
					c-0.7-1.7-1.3-3.6-1.8-5.6C410.1,360.4,409.9,358.3,409.9,356z"/>
			</g>
			<g class="st1">
				<path class="st2" d="M431.9,370.6c-2.5,0-4.6-0.4-6.4-1.3c-1.8-0.9-3.1-2.2-4.1-4l2-1.4c0.9,1.5,2,2.7,3.4,3.4
					c1.3,0.7,3,1.1,5.1,1.1c1.5,0,2.7-0.2,3.8-0.6c1.1-0.4,2-0.9,2.7-1.6c0.7-0.7,1.2-1.5,1.6-2.4c0.3-0.9,0.5-1.9,0.5-2.9
					c0-1.4-0.4-2.6-1.2-3.5c-0.8-0.9-2.1-1.5-3.8-1.9l-3.4-0.7c-4.3-1-6.4-3.4-6.4-7.4c0-1.2,0.2-2.4,0.7-3.5c0.4-1.1,1.1-2.1,2-2.9
					c0.9-0.8,2-1.5,3.3-2c1.3-0.5,2.8-0.7,4.5-0.7c2.5,0,4.5,0.4,6,1.3c1.5,0.8,2.8,2,3.7,3.4l-1.9,1.5c-0.8-1.3-1.9-2.3-3.1-2.9
					c-1.2-0.6-2.9-1-4.8-1c-2.5,0-4.4,0.6-5.7,1.8s-2,2.8-2,4.8c0,1.5,0.4,2.6,1.2,3.5c0.8,0.9,2,1.5,3.7,1.9l3.3,0.7
					c2.2,0.5,3.8,1.3,4.9,2.6c1.1,1.2,1.7,2.9,1.7,4.9c0,1.4-0.2,2.7-0.7,3.9c-0.5,1.2-1.2,2.3-2.1,3.2c-0.9,0.9-2.1,1.6-3.5,2.1
					C435.3,370.3,433.7,370.6,431.9,370.6z"/>
				<path class="st2" d="M450.2,365.9c1.2,0,1.8,0.5,1.8,1.4c0,0.1,0,0.3,0,0.6s-0.1,0.4-0.1,0.6c-0.1,0.6-0.4,1.2-0.7,1.9
					c-0.3,0.7-0.6,1.4-1.1,2.1c-0.4,0.7-0.9,1.4-1.5,2c-0.6,0.6-1.2,1.2-1.9,1.7h-2.2c1.2-1,2.1-2,2.8-3c0.7-1,1.2-2,1.6-2.9
					c-0.9-0.1-1.3-0.6-1.3-1.3c0-0.2,0-0.4,0-0.6c0-0.2,0.1-0.4,0.1-0.6c0.1-0.5,0.3-0.9,0.6-1.3
					C448.9,366.1,449.5,365.9,450.2,365.9z"/>
				<path class="st2" d="M474.7,370c-0.8,0-1.3-0.2-1.7-0.6c-0.4-0.4-0.5-0.9-0.5-1.4c0-0.3,0-0.7,0.1-1.1l0.4-1.9h-0.1
					c-1,1.8-2,3.2-3.2,4.2c-1.2,0.9-2.7,1.4-4.5,1.4c-1.1,0-2.1-0.2-3-0.6c-0.9-0.4-1.6-1-2.2-1.8c-0.6-0.7-1.1-1.7-1.4-2.7
					c-0.3-1.1-0.5-2.3-0.5-3.6c0-1.9,0.2-3.7,0.7-5.6c0.5-1.8,1.2-3.5,2.1-4.9c0.9-1.5,2.1-2.6,3.5-3.6c1.4-0.9,3-1.4,4.9-1.4
					c1.6,0,3,0.4,4.2,1.1c1.2,0.8,1.9,1.8,2.3,3.3h0.1l0.8-3.9h2.5l-4.1,20.8h3.5L478,370H474.7z M465.7,368.4c1,0,1.8-0.2,2.6-0.5
					c0.8-0.4,1.5-0.9,2.2-1.6c0.8-0.7,1.5-1.6,2.1-2.6c0.6-1,1-2.2,1.3-3.6l1.1-5.4c0.1-0.7,0.2-1.4,0-2.2s-0.4-1.4-0.9-1.9
					c-0.4-0.6-1.1-1-1.9-1.4c-0.8-0.3-1.8-0.5-2.9-0.5c-2.2,0-3.9,0.7-5.3,2.1c-1.4,1.4-2.3,3.4-2.9,6l-0.5,2.7
					c-0.1,0.4-0.1,0.8-0.2,1.3c0,0.4-0.1,0.9-0.1,1.4c0,0.9,0.1,1.7,0.3,2.4c0.2,0.8,0.5,1.4,0.9,2c0.4,0.6,1,1,1.6,1.3
					C464,368.2,464.8,368.4,465.7,368.4z"/>
			</g>
			<g class="st1">
				<path class="st2" d="M494.6,356c0,2.2-0.2,4.4-0.7,6.4c-0.4,2-1,3.9-1.8,5.6c-0.7,1.7-1.6,3.3-2.6,4.7c-1,1.4-2,2.6-3.1,3.5
					h-2.5c1.2-1,2.3-2.2,3.3-3.7c1-1.4,1.9-3,2.6-4.6c0.7-1.6,1.3-3.3,1.8-5.1c0.4-1.8,0.6-3.5,0.6-5.3v-3c0-1.8-0.2-3.5-0.6-5.3
					c-0.4-1.8-1-3.5-1.7-5.1c-0.7-1.6-1.6-3.2-2.6-4.6c-1-1.4-2.1-2.7-3.3-3.7h2.5c1.1,1,2.2,2.1,3.1,3.5c1,1.4,1.9,3,2.6,4.7
					c0.7,1.7,1.3,3.6,1.8,5.6C494.4,351.7,494.6,353.8,494.6,356z"/>
			</g>
			<g class="st1">
				<path class="st2" d="M511.4,353.1v-2.2h21.1v2.2H511.4z M511.4,361.7v-2.2h21.1v2.2H511.4z"/>
				<path class="st2" d="M550.5,370v-31.4h18.3v2.4h-15.6v11.9H568v2.4h-14.9v12.4h15.6v2.4H550.5z"/>
				<path class="st2" d="M576,370v-23h2.6v3.6h0.1c0.5-1.2,1.3-2.2,2.4-3s2.5-1.2,4.4-1.2c2.5,0,4.4,0.8,5.7,2.3
					c1.4,1.5,2,3.7,2,6.5V370h-2.6v-14.3c0-2.3-0.5-4.1-1.5-5.2c-1-1.1-2.5-1.7-4.4-1.7c-0.8,0-1.6,0.1-2.3,0.3s-1.4,0.5-2,0.9
					c-0.6,0.4-1,1-1.4,1.6c-0.3,0.6-0.5,1.4-0.5,2.2V370H576z"/>
				<path class="st2" d="M605.3,370c-0.9,0-1.6-0.3-2.1-0.8c-0.5-0.5-0.7-1.2-0.7-2.1v-18h-4V347h2.6c0.6,0,1.1-0.1,1.3-0.4
					c0.2-0.3,0.3-0.7,0.3-1.4v-4.7h2.3v6.4h5.2v2.2H605v18.6h4.9v2.2H605.3z"/>
				<path class="st2" d="M616.4,370v-23h2.6v4.1h0.2c0.4-1.1,1.2-2,2.3-2.9c1.1-0.8,2.6-1.3,4.6-1.3h1.5v2.5h-2
					c-1.9,0-3.5,0.4-4.7,1.3c-1.2,0.8-1.8,2-1.8,3.5V370H616.4z"/>
				<path class="st2" d="M640.4,370.6c-1.5,0-2.9-0.3-4.1-0.8c-1.2-0.5-2.3-1.3-3.1-2.4c-0.9-1-1.5-2.3-2-3.8
					c-0.5-1.5-0.7-3.2-0.7-5.1c0-1.9,0.2-3.6,0.7-5.1c0.5-1.5,1.2-2.7,2-3.8s1.9-1.8,3.1-2.4c1.2-0.6,2.6-0.8,4.1-0.8
					c1.5,0,2.9,0.3,4.1,0.8s2.3,1.3,3.1,2.4c0.9,1,1.5,2.3,2,3.8c0.5,1.5,0.7,3.2,0.7,5.1c0,1.9-0.2,3.6-0.7,5.1
					c-0.5,1.5-1.2,2.8-2,3.8c-0.9,1-1.9,1.8-3.1,2.4S642,370.6,640.4,370.6z M640.4,368.3c2.2,0,4-0.7,5.3-2.1c1.3-1.4,2-3.5,2-6.2
					v-2.9c0-2.7-0.7-4.8-2-6.2c-1.3-1.4-3.1-2.1-5.3-2.1c-2.2,0-4,0.7-5.3,2.1c-1.3,1.4-2,3.5-2,6.2v2.9c0,2.7,0.7,4.8,2,6.2
					C636.4,367.6,638.2,368.3,640.4,368.3z"/>
				<path class="st2" d="M657,347h2.6v3.7h0.1c0.6-1.3,1.4-2.3,2.6-3.1c1.2-0.8,2.6-1.1,4.4-1.1c3,0,5.3,1,7,3.1
					c1.7,2.1,2.5,5.1,2.5,8.9c0,3.8-0.8,6.8-2.5,8.9s-4,3.1-7,3.1c-1.8,0-3.2-0.4-4.4-1.1c-1.1-0.8-2-1.8-2.7-3.1h-0.1V379H657V347z
					 M666.1,368.3c2.3,0,4.1-0.7,5.4-2.2c1.3-1.5,1.9-3.4,1.9-5.9v-3.2c0-2.5-0.6-4.5-1.9-5.9c-1.3-1.5-3.1-2.2-5.4-2.2
					c-0.9,0-1.7,0.1-2.5,0.4s-1.5,0.6-2.1,1.1c-0.6,0.5-1.1,1-1.4,1.6c-0.3,0.6-0.5,1.3-0.5,2.1v9.1c0,0.8,0.2,1.5,0.5,2.2
					c0.3,0.6,0.8,1.2,1.4,1.7c0.6,0.5,1.3,0.8,2.1,1.1C664.4,368.2,665.2,368.3,666.1,368.3z"/>
				<path class="st2" d="M696.3,347h2.6l-10.7,29.5c-0.4,1-0.8,1.6-1.3,2c-0.5,0.4-1.3,0.5-2.5,0.5h-2.6v-2.2h3.9l2.2-6.1l-8.5-23.7
					h2.7l7.1,20.3h0.2L696.3,347z"/>
				<path class="st2" d="M704,356c0-2.2,0.2-4.3,0.7-6.3c0.4-2,1-3.9,1.8-5.6c0.7-1.7,1.6-3.3,2.6-4.7c1-1.4,2-2.6,3.1-3.5h2.5
					c-1.2,1.1-2.3,2.3-3.3,3.7s-1.9,2.9-2.6,4.6c-0.7,1.6-1.3,3.3-1.7,5.1c-0.4,1.8-0.6,3.5-0.6,5.3v3c0,1.8,0.2,3.5,0.6,5.3
					c0.4,1.8,1,3.5,1.8,5.1c0.7,1.6,1.6,3.2,2.6,4.6s2.1,2.6,3.3,3.7h-2.5c-1.1-0.9-2.1-2.1-3.1-3.5c-1-1.4-1.9-3-2.6-4.7
					c-0.8-1.7-1.3-3.6-1.8-5.6C704.3,360.4,704,358.3,704,356z"/>
			</g>
			<g class="st1">
				<path class="st2" d="M726.2,370.6c-2.5,0-4.6-0.4-6.4-1.3c-1.8-0.9-3.1-2.2-4.1-4l2-1.4c0.9,1.5,2,2.7,3.4,3.4
					c1.3,0.7,3,1.1,5.1,1.1c1.5,0,2.7-0.2,3.8-0.6c1.1-0.4,2-0.9,2.7-1.6c0.7-0.7,1.2-1.5,1.6-2.4c0.3-0.9,0.5-1.9,0.5-2.9
					c0-1.4-0.4-2.6-1.2-3.5c-0.8-0.9-2.1-1.5-3.8-1.9l-3.4-0.7c-4.3-1-6.4-3.4-6.4-7.4c0-1.2,0.2-2.4,0.7-3.5c0.4-1.1,1.1-2.1,2-2.9
					c0.9-0.8,2-1.5,3.3-2c1.3-0.5,2.8-0.7,4.5-0.7c2.5,0,4.5,0.4,6,1.3s2.8,2,3.7,3.4l-1.9,1.5c-0.8-1.3-1.9-2.3-3.1-2.9
					s-2.9-1-4.8-1c-2.5,0-4.4,0.6-5.7,1.8c-1.3,1.2-2,2.8-2,4.8c0,1.5,0.4,2.6,1.2,3.5c0.8,0.9,2,1.5,3.7,1.9l3.3,0.7
					c2.2,0.5,3.8,1.3,4.9,2.6c1.1,1.2,1.7,2.9,1.7,4.9c0,1.4-0.2,2.7-0.7,3.9s-1.2,2.3-2.1,3.2c-0.9,0.9-2.1,1.6-3.5,2.1
					C729.7,370.3,728.1,370.6,726.2,370.6z"/>
			</g>
			<g class="st1">
				<path class="st2" d="M751.4,356c0,2.2-0.2,4.4-0.7,6.4s-1,3.9-1.8,5.6c-0.8,1.7-1.6,3.3-2.6,4.7c-1,1.4-2,2.6-3.1,3.5h-2.5
					c1.2-1,2.3-2.2,3.3-3.7s1.9-3,2.6-4.6c0.7-1.6,1.3-3.3,1.8-5.1c0.4-1.8,0.6-3.5,0.6-5.3v-3c0-1.8-0.2-3.5-0.6-5.3
					c-0.4-1.8-1-3.5-1.7-5.1c-0.7-1.6-1.6-3.2-2.6-4.6s-2.1-2.7-3.3-3.7h2.5c1.1,1,2.2,2.1,3.1,3.5c1,1.4,1.9,3,2.6,4.7
					c0.7,1.7,1.3,3.6,1.8,5.6C751.2,351.7,751.4,353.8,751.4,356z"/>
				<path class="st2" d="M767.7,357.5v-2.4h23.2v2.4H767.7z"/>
			</g>
			<g class="st1">
				<path class="st2" d="M810.3,407.2V402l39.9-46.8l-39-45.3v-5.1H878v4.8h-60.6l39.1,45.5l-40.2,47.2H878v4.8H810.3z"/>
			</g>
			<g class="st1">
				<path class="st2" d="M984.1,370v-31.4h18.3v2.4h-15.6v11.9h14.9v2.4h-14.9v12.4h15.6v2.4H984.1z"/>
				<path class="st2" d="M1009.7,370v-23h2.6v3.6h0.1c0.5-1.2,1.3-2.2,2.4-3s2.5-1.2,4.4-1.2c2.5,0,4.4,0.8,5.7,2.3s2,3.7,2,6.5V370
					h-2.6v-14.3c0-2.3-0.5-4.1-1.5-5.2c-1-1.1-2.5-1.7-4.4-1.7c-0.8,0-1.6,0.1-2.3,0.3c-0.7,0.2-1.4,0.5-2,0.9c-0.6,0.4-1,1-1.4,1.6
					c-0.3,0.6-0.5,1.4-0.5,2.2V370H1009.7z"/>
				<path class="st2" d="M1038.9,370c-0.9,0-1.6-0.3-2.1-0.8s-0.7-1.2-0.7-2.1v-18h-4V347h2.6c0.6,0,1.1-0.1,1.3-0.4
					c0.2-0.3,0.3-0.7,0.3-1.4v-4.7h2.3v6.4h5.2v2.2h-5.2v18.6h4.9v2.2H1038.9z"/>
				<path class="st2" d="M1050,370v-23h2.6v4.1h0.2c0.5-1.1,1.2-2,2.3-2.9c1.1-0.8,2.6-1.3,4.6-1.3h1.5v2.5h-2
					c-1.9,0-3.5,0.4-4.7,1.3s-1.8,2-1.8,3.5V370H1050z"/>
				<path class="st2" d="M1074.1,370.6c-1.5,0-2.9-0.3-4.1-0.8c-1.2-0.5-2.3-1.3-3.1-2.4c-0.9-1-1.5-2.3-2-3.8
					c-0.5-1.5-0.7-3.2-0.7-5.1c0-1.9,0.2-3.6,0.7-5.1c0.5-1.5,1.2-2.7,2-3.8s1.9-1.8,3.1-2.4c1.2-0.6,2.6-0.8,4.1-0.8
					s2.9,0.3,4.1,0.8c1.2,0.6,2.3,1.3,3.1,2.4c0.9,1,1.5,2.3,2,3.8c0.5,1.5,0.7,3.2,0.7,5.1c0,1.9-0.2,3.6-0.7,5.1
					c-0.5,1.5-1.2,2.8-2,3.8c-0.9,1-1.9,1.8-3.1,2.4C1077,370.3,1075.6,370.6,1074.1,370.6z M1074.1,368.3c2.2,0,4-0.7,5.3-2.1
					s2-3.5,2-6.2v-2.9c0-2.7-0.7-4.8-2-6.2s-3.1-2.1-5.3-2.1s-4,0.7-5.3,2.1c-1.3,1.4-2,3.5-2,6.2v2.9c0,2.7,0.7,4.8,2,6.2
					C1070.1,367.6,1071.9,368.3,1074.1,368.3z"/>
				<path class="st2" d="M1090.6,347h2.6v3.7h0.1c0.6-1.3,1.4-2.3,2.6-3.1s2.6-1.1,4.4-1.1c3,0,5.3,1,7,3.1c1.7,2.1,2.5,5.1,2.5,8.9
					c0,3.8-0.8,6.8-2.5,8.9s-4,3.1-7,3.1c-1.8,0-3.2-0.4-4.4-1.1c-1.1-0.8-2-1.8-2.7-3.1h-0.1V379h-2.6V347z M1099.8,368.3
					c2.3,0,4.1-0.7,5.4-2.2c1.3-1.5,1.9-3.4,1.9-5.9v-3.2c0-2.5-0.6-4.5-1.9-5.9s-3.1-2.2-5.4-2.2c-0.9,0-1.7,0.1-2.5,0.4
					c-0.8,0.3-1.5,0.6-2.1,1.1c-0.6,0.5-1.1,1-1.4,1.6c-0.3,0.6-0.5,1.3-0.5,2.1v9.1c0,0.8,0.2,1.5,0.5,2.2c0.3,0.6,0.8,1.2,1.4,1.7
					c0.6,0.5,1.3,0.8,2.1,1.1C1098,368.2,1098.9,368.3,1099.8,368.3z"/>
				<path class="st2" d="M1130,347h2.6l-10.7,29.5c-0.4,1-0.8,1.6-1.3,2c-0.5,0.4-1.3,0.5-2.5,0.5h-2.6v-2.2h3.9l2.2-6.1L1113,347
					h2.7l7.1,20.3h0.2L1130,347z"/>
				<path class="st2" d="M1137.7,356c0-2.2,0.2-4.3,0.7-6.3c0.4-2,1-3.9,1.8-5.6c0.7-1.7,1.6-3.3,2.6-4.7c1-1.4,2-2.6,3.1-3.5h2.5
					c-1.2,1.1-2.3,2.3-3.3,3.7s-1.9,2.9-2.6,4.6c-0.7,1.6-1.3,3.3-1.7,5.1c-0.4,1.8-0.6,3.5-0.6,5.3v3c0,1.8,0.2,3.5,0.6,5.3
					c0.4,1.8,1,3.5,1.8,5.1c0.7,1.6,1.6,3.2,2.6,4.6s2.1,2.6,3.3,3.7h-2.5c-1.1-0.9-2.1-2.1-3.1-3.5c-1-1.4-1.9-3-2.6-4.7
					c-0.8-1.7-1.3-3.6-1.8-5.6C1137.9,360.4,1137.7,358.3,1137.7,356z"/>
			</g>
			<g class="st1">
				<path class="st2" d="M1159.9,370.6c-2.5,0-4.6-0.4-6.4-1.3c-1.8-0.9-3.1-2.2-4.1-4l2-1.4c0.9,1.5,2,2.7,3.4,3.4
					c1.3,0.7,3,1.1,5.1,1.1c1.5,0,2.7-0.2,3.8-0.6c1.1-0.4,2-0.9,2.7-1.6c0.7-0.7,1.2-1.5,1.6-2.4c0.3-0.9,0.5-1.9,0.5-2.9
					c0-1.4-0.4-2.6-1.2-3.5c-0.8-0.9-2.1-1.5-3.8-1.9l-3.4-0.7c-4.3-1-6.4-3.4-6.4-7.4c0-1.2,0.2-2.4,0.7-3.5c0.4-1.1,1.1-2.1,2-2.9
					c0.9-0.8,2-1.5,3.3-2c1.3-0.5,2.8-0.7,4.5-0.7c2.5,0,4.5,0.4,6,1.3s2.8,2,3.7,3.4l-1.9,1.5c-0.8-1.3-1.9-2.3-3.1-2.9
					c-1.2-0.6-2.9-1-4.8-1c-2.5,0-4.4,0.6-5.7,1.8s-2,2.8-2,4.8c0,1.5,0.4,2.6,1.2,3.5c0.8,0.9,2,1.5,3.7,1.9l3.3,0.7
					c2.2,0.5,3.8,1.3,4.9,2.6c1.1,1.2,1.7,2.9,1.7,4.9c0,1.4-0.2,2.7-0.7,3.9c-0.5,1.2-1.2,2.3-2.1,3.2c-0.9,0.9-2.1,1.6-3.5,2.1
					C1163.4,370.3,1161.8,370.6,1159.9,370.6z"/>
			</g>
			<g class="st1">
				<path class="st2" d="M1178.3,372.9l-1.8-14.3h1.2l1.6,13h0.1l6.9-13h1.3l-7.6,14.3H1178.3z"/>
			</g>
			<g class="st1">
				<path class="st3" d="M1178.3,372.9l-1.8-14.3h1.2l1.6,13h0.1l6.9-13h1.3l-7.6,14.3H1178.3z"/>
			</g>
			<g class="st1">
				<path class="st2" d="M1197,356c0,2.2-0.2,4.4-0.7,6.4c-0.5,2-1,3.9-1.8,5.6c-0.7,1.7-1.6,3.3-2.6,4.7c-1,1.4-2,2.6-3.1,3.5h-2.5
					c1.2-1,2.3-2.2,3.3-3.7c1-1.4,1.9-3,2.6-4.6c0.7-1.6,1.3-3.3,1.8-5.1c0.4-1.8,0.6-3.5,0.6-5.3v-3c0-1.8-0.2-3.5-0.6-5.3
					c-0.4-1.8-1-3.5-1.7-5.1c-0.7-1.6-1.6-3.2-2.6-4.6c-1-1.4-2.1-2.7-3.3-3.7h2.5c1.1,1,2.2,2.1,3.1,3.5c1,1.4,1.9,3,2.6,4.7
					c0.7,1.7,1.3,3.6,1.8,5.6C1196.7,351.7,1197,353.8,1197,356z"/>
			</g>
		</g>
		<rect x="913.4" y="301.9" class="st4" width="39.4" height="52.5"/>
		<g class="st1">
			<path class="st2" d="M924.4,335.7c-2.5,0-4.6-0.4-6.4-1.3c-1.8-0.9-3.1-2.2-4.1-4l2-1.4c0.9,1.5,2,2.7,3.4,3.4
				c1.3,0.7,3,1.1,5.1,1.1c1.5,0,2.7-0.2,3.8-0.6c1.1-0.4,2-0.9,2.7-1.6c0.7-0.7,1.2-1.5,1.6-2.4c0.3-0.9,0.5-1.9,0.5-2.9
				c0-1.4-0.4-2.6-1.2-3.5c-0.8-0.9-2.1-1.5-3.8-1.9l-3.4-0.7c-4.3-1-6.4-3.4-6.4-7.4c0-1.2,0.2-2.4,0.7-3.5c0.4-1.1,1.1-2.1,2-2.9
				c0.9-0.8,2-1.5,3.3-2c1.3-0.5,2.8-0.7,4.5-0.7c2.5,0,4.5,0.4,6,1.3s2.8,2,3.7,3.4l-1.9,1.5c-0.8-1.3-1.9-2.3-3.1-2.9
				s-2.9-1-4.8-1c-2.5,0-4.4,0.6-5.7,1.8c-1.3,1.2-2,2.8-2,4.8c0,1.5,0.4,2.6,1.2,3.5c0.8,0.9,2,1.5,3.7,1.9l3.3,0.7
				c2.2,0.5,3.8,1.3,4.9,2.6c1.1,1.2,1.7,2.9,1.7,4.9c0,1.4-0.2,2.7-0.7,3.9s-1.2,2.3-2.1,3.2c-0.9,0.9-2.1,1.6-3.5,2.1
				C927.8,335.4,926.2,335.7,924.4,335.7z"/>
		</g>
		<g class="st1">
			<path class="st2" d="M942.3,338.1l-1.8-14.3h1.2l1.6,13h0.1l6.9-13h1.3l-7.6,14.3H942.3z"/>
		</g>
		<g class="st1">
			<path class="st3" d="M942.3,338.1l-1.8-14.3h1.2l1.6,13h0.1l6.9-13h1.3l-7.6,14.3H942.3z"/>
		</g>
		<line class="st5" x1="956.3" y1="338.4" x2="956.3" y2="299.9"/>
		<line class="st5" x1="909.4" y1="338.4" x2="909.4" y2="299.9"/>
		<rect x="919.3" y="370.3" class="st4" width="28.6" height="52.5"/>
		<g class="st1">
			<path class="st2" d="M930.2,404.1c-2.5,0-4.6-0.4-6.4-1.3c-1.8-0.9-3.1-2.2-4.1-4l2-1.4c0.9,1.5,2,2.7,3.4,3.4
				c1.3,0.7,3,1.1,5.1,1.1c1.5,0,2.7-0.2,3.8-0.6c1.1-0.4,2-0.9,2.7-1.6c0.7-0.7,1.2-1.5,1.6-2.4c0.3-0.9,0.5-1.9,0.5-2.9
				c0-1.4-0.4-2.6-1.2-3.5c-0.8-0.9-2.1-1.5-3.8-1.9l-3.4-0.7c-4.3-1-6.4-3.4-6.4-7.4c0-1.2,0.2-2.4,0.7-3.5s1.1-2.1,2-2.9
				c0.9-0.8,2-1.5,3.3-2c1.3-0.5,2.8-0.7,4.5-0.7c2.5,0,4.5,0.4,6,1.3c1.5,0.8,2.8,2,3.7,3.4l-1.9,1.5c-0.8-1.3-1.9-2.3-3.1-2.9
				c-1.2-0.6-2.9-1-4.8-1c-2.5,0-4.4,0.6-5.7,1.8c-1.3,1.2-2,2.8-2,4.8c0,1.5,0.4,2.6,1.2,3.5c0.8,0.9,2,1.5,3.7,1.9l3.3,0.7
				c2.2,0.5,3.8,1.3,4.9,2.6c1.1,1.2,1.7,2.9,1.7,4.9c0,1.4-0.2,2.7-0.7,3.9c-0.5,1.2-1.2,2.3-2.1,3.2c-0.9,0.9-2.1,1.6-3.5,2.1
				C933.7,403.8,932.1,404.1,930.2,404.1z"/>
		</g>
		<line class="st5" x1="949.5" y1="410.7" x2="949.5" y2="372.2"/>
		<line class="st5" x1="915.3" y1="410.7" x2="915.3" y2="372.2"/>
		<line class="st5" x1="962.1" y1="356.5" x2="900.6" y2="356.5"/>
		<rect x="771.9" y="411.9" class="st4" width="162.9" height="52.5"/>
		<g class="st1">
			<path class="st2" d="M772.5,439.4h1.6l4.3,12.3h0.1l4.3-12.3h1.6l-5.1,14h-1.8L772.5,439.4z"/>
		</g>
		<g class="st1">
			<path d="M792.4,453.7c-1.8,0-3.2-0.6-4.2-1.9c-1-1.2-1.5-3.1-1.5-5.5c0-2.4,0.5-4.3,1.5-5.5c1-1.3,2.4-1.9,4.2-1.9
				c1.2,0,2.2,0.3,3,0.8c0.8,0.5,1.4,1.3,1.8,2.2l-1,0.6c-0.3-0.8-0.8-1.4-1.4-1.9c-0.6-0.5-1.4-0.7-2.4-0.7c-1.4,0-2.4,0.5-3.2,1.4
				c-0.8,1-1.1,2.3-1.1,4.1v0.1h6.5v1.1h-6.5v0.4c0,1.8,0.4,3.1,1.1,4.1c0.8,0.9,1.8,1.4,3.2,1.4c1,0,1.8-0.2,2.5-0.7
				c0.7-0.5,1.1-1.1,1.4-2l1,0.6c-0.4,1-1,1.8-1.9,2.3C794.6,453.4,793.6,453.7,792.4,453.7z"/>
		</g>
		<g class="st1">
			<path class="st6" d="M792.4,453.7c-1.8,0-3.2-0.6-4.2-1.9c-1-1.2-1.5-3.1-1.5-5.5c0-2.4,0.5-4.3,1.5-5.5c1-1.3,2.4-1.9,4.2-1.9
				c1.2,0,2.2,0.3,3,0.8c0.8,0.5,1.4,1.3,1.8,2.2l-1,0.6c-0.3-0.8-0.8-1.4-1.4-1.9c-0.6-0.5-1.4-0.7-2.4-0.7c-1.4,0-2.4,0.5-3.2,1.4
				c-0.8,1-1.1,2.3-1.1,4.1v0.1h6.5v1.1h-6.5v0.4c0,1.8,0.4,3.1,1.1,4.1c0.8,0.9,1.8,1.4,3.2,1.4c1,0,1.8-0.2,2.5-0.7
				c0.7-0.5,1.1-1.1,1.4-2l1,0.6c-0.4,1-1,1.8-1.9,2.3C794.6,453.4,793.6,453.7,792.4,453.7z"/>
		</g>
		<g class="st1">
			<path class="st2" d="M798.9,439.4h1.6l4.3,12.3h0.1l4.3-12.3h1.6l-5.1,14H804L798.9,439.4z"/>
			<path class="st2" d="M818.6,453.7c-1.9,0-3.4-0.6-4.5-1.9c-1-1.3-1.6-3.1-1.6-5.4c0-2.3,0.5-4.1,1.6-5.4c1-1.3,2.5-1.9,4.5-1.9
				c1.3,0,2.3,0.3,3.1,0.8c0.8,0.6,1.4,1.3,1.8,2.2l-1.3,0.7c-0.3-0.8-0.8-1.3-1.4-1.7c-0.6-0.4-1.4-0.6-2.3-0.6
				c-1.4,0-2.5,0.5-3.3,1.4c-0.7,0.9-1.1,2.1-1.1,3.6v2c0,1.5,0.4,2.7,1.1,3.6c0.7,0.9,1.8,1.4,3.3,1.4c1,0,1.8-0.2,2.4-0.6
				c0.7-0.4,1.2-1,1.6-1.8l1.1,0.8c-0.5,0.9-1.1,1.7-2,2.2C821,453.4,819.9,453.7,818.6,453.7z"/>
			<path class="st2" d="M836.9,453.4c-0.6,0-1-0.2-1.3-0.5c-0.3-0.3-0.4-0.7-0.5-1.3v-0.5H835c-0.3,0.8-0.8,1.4-1.5,1.9
				s-1.6,0.7-2.7,0.7c-1.5,0-2.6-0.4-3.4-1.1c-0.8-0.7-1.2-1.7-1.2-3.1c0-1.2,0.4-2.2,1.3-3c0.9-0.7,2.3-1.1,4.4-1.1h3.2v-1.6
				c0-2.3-1.2-3.5-3.6-3.5c-0.9,0-1.7,0.2-2.3,0.6c-0.6,0.4-1.1,1-1.5,1.7l-1-0.8c0.4-0.8,1-1.5,1.8-2c0.8-0.5,1.8-0.8,3.1-0.8
				c1.6,0,2.9,0.4,3.8,1.2c0.9,0.8,1.3,2,1.3,3.5v8.3h1.9v1.3H836.9z M831,452.4c0.6,0,1.1-0.1,1.6-0.2s0.9-0.4,1.3-0.6
				c0.4-0.3,0.7-0.6,0.9-1c0.2-0.4,0.3-0.8,0.3-1.3v-2.6h-3.3c-1.4,0-2.4,0.2-3,0.7c-0.6,0.4-0.9,1.1-0.9,1.9v0.7
				c0,0.8,0.3,1.4,0.9,1.9C829.2,452.2,830,452.4,831,452.4z"/>
			<path class="st2" d="M843.4,453.4c-0.6,0-1-0.2-1.3-0.5c-0.3-0.3-0.4-0.7-0.4-1.2v-18.5h1.6v18.9h2.2v1.3H843.4z"/>
			<path class="st2" d="M857.7,451.2h-0.1c-0.1,0.3-0.3,0.6-0.5,1c-0.2,0.3-0.5,0.6-0.8,0.8c-0.3,0.2-0.7,0.4-1.2,0.6
				c-0.4,0.1-1,0.2-1.6,0.2c-1.5,0-2.7-0.5-3.5-1.4c-0.8-0.9-1.3-2.2-1.3-4v-9h1.6v8.7c0,1.4,0.3,2.5,0.9,3.2c0.6,0.7,1.5,1,2.7,1
				c0.5,0,1-0.1,1.4-0.2c0.4-0.1,0.8-0.3,1.2-0.6c0.4-0.3,0.6-0.6,0.8-1c0.2-0.4,0.3-0.9,0.3-1.4v-9.8h1.6v14h-1.6V451.2z"/>
			<path class="st2" d="M869.3,453.7c-0.9,0-1.8-0.2-2.5-0.5c-0.8-0.3-1.4-0.8-1.9-1.4c-0.5-0.6-0.9-1.4-1.2-2.3
				c-0.3-0.9-0.4-1.9-0.4-3.1s0.1-2.2,0.4-3.1c0.3-0.9,0.7-1.7,1.2-2.3c0.5-0.6,1.2-1.1,1.9-1.4c0.7-0.3,1.6-0.5,2.5-0.5
				c0.9,0,1.7,0.2,2.4,0.5c0.7,0.3,1.3,0.8,1.9,1.4c0.5,0.6,0.9,1.3,1.2,2.2c0.3,0.9,0.4,1.8,0.4,2.8v0.7h-10.4v0.7
				c0,0.7,0.1,1.4,0.3,2c0.2,0.6,0.5,1.1,0.9,1.6c0.4,0.4,0.9,0.8,1.4,1c0.6,0.2,1.2,0.4,1.9,0.4c2,0,3.5-0.9,4.2-2.8l1.1,0.8
				c-0.4,1-1.1,1.9-2.1,2.5C871.8,453.4,870.6,453.7,869.3,453.7z M869.3,440.4c-0.7,0-1.3,0.1-1.8,0.4s-1,0.6-1.4,1
				c-0.4,0.4-0.7,1-0.9,1.6c-0.2,0.6-0.3,1.3-0.3,2v0.1h8.7v-0.2c0-0.7-0.1-1.4-0.3-2c-0.2-0.6-0.5-1.1-0.9-1.5
				c-0.4-0.4-0.8-0.7-1.3-1C870.5,440.5,869.9,440.4,869.3,440.4z"/>
			<path class="st2" d="M883.1,453.7c-1.2,0-2.3-0.2-3.1-0.7c-0.9-0.5-1.6-1.1-2.3-2l1.1-0.9c0.6,0.8,1.2,1.3,1.9,1.7
				c0.7,0.4,1.5,0.5,2.4,0.5c1.1,0,1.9-0.2,2.5-0.7c0.6-0.5,0.9-1.1,0.9-2c0-0.7-0.2-1.3-0.7-1.8c-0.4-0.4-1.2-0.7-2.2-0.9l-1.1-0.2
				c-0.6-0.1-1.2-0.2-1.8-0.4c-0.5-0.2-1-0.4-1.4-0.7c-0.4-0.3-0.7-0.7-0.9-1.1c-0.2-0.4-0.3-1-0.3-1.6c0-0.7,0.1-1.2,0.4-1.7
				s0.6-0.9,1-1.2c0.4-0.3,0.9-0.6,1.5-0.7c0.6-0.2,1.2-0.2,1.9-0.2c1.2,0,2.1,0.2,2.9,0.6c0.7,0.4,1.4,0.9,1.9,1.6l-1,1
				c-0.4-0.4-0.9-0.8-1.5-1.2c-0.6-0.4-1.4-0.6-2.4-0.6c-1,0-1.8,0.2-2.3,0.7c-0.6,0.4-0.8,1.1-0.8,1.9c0,0.8,0.2,1.4,0.8,1.8
				c0.5,0.4,1.3,0.6,2.3,0.8l1.1,0.2c1.4,0.2,2.5,0.6,3.2,1.3c0.7,0.6,1,1.5,1,2.6c0,1.3-0.4,2.3-1.3,3.1
				C885.9,453.4,884.7,453.7,883.1,453.7z"/>
			<path class="st2" d="M892.2,444.9c0-1.3,0.1-2.6,0.4-3.9c0.3-1.2,0.6-2.4,1.1-3.4c0.5-1,1-2,1.6-2.8s1.2-1.6,1.9-2.1h1.5
				c-0.7,0.7-1.4,1.4-2,2.3c-0.6,0.9-1.1,1.8-1.6,2.8c-0.4,1-0.8,2-1.1,3.1c-0.3,1.1-0.4,2.2-0.4,3.2v1.8c0,1.1,0.1,2.2,0.4,3.2
				c0.3,1.1,0.6,2.1,1.1,3.1c0.5,1,1,1.9,1.6,2.8c0.6,0.9,1.3,1.6,2,2.2h-1.5c-0.7-0.6-1.3-1.3-1.9-2.1s-1.1-1.8-1.6-2.8
				c-0.5-1-0.8-2.2-1.1-3.4S892.2,446.2,892.2,444.9z"/>
		</g>
		<g class="st1">
			<path class="st2" d="M910.7,453.4c-0.5,0-0.8-0.1-1-0.3s-0.3-0.5-0.3-0.9c0-0.2,0-0.4,0.1-0.7l0.2-1.1h-0.1c-0.6,1.1-1.2,2-2,2.5
				c-0.7,0.6-1.6,0.8-2.7,0.8c-0.7,0-1.3-0.1-1.8-0.4c-0.5-0.3-1-0.6-1.4-1.1c-0.4-0.5-0.7-1-0.9-1.7c-0.2-0.6-0.3-1.4-0.3-2.2
				c0-1.1,0.1-2.3,0.4-3.4c0.3-1.1,0.7-2.1,1.3-3c0.6-0.9,1.3-1.6,2.1-2.2c0.9-0.6,1.8-0.8,3-0.8c1,0,1.8,0.2,2.5,0.7
				c0.7,0.5,1.2,1.1,1.4,2h0.1l0.5-2.4h1.5l-2.5,12.7h2.1l-0.3,1.3H910.7z M905.2,452.4c0.6,0,1.1-0.1,1.6-0.3
				c0.5-0.2,0.9-0.5,1.4-1c0.5-0.4,0.9-1,1.3-1.6c0.4-0.6,0.6-1.3,0.8-2.2l0.7-3.3c0.1-0.4,0.1-0.9,0-1.3c-0.1-0.4-0.3-0.8-0.5-1.2
				s-0.7-0.6-1.1-0.8c-0.5-0.2-1.1-0.3-1.8-0.3c-1.3,0-2.4,0.4-3.2,1.3c-0.8,0.9-1.4,2.1-1.7,3.6l-0.3,1.6c0,0.3-0.1,0.5-0.1,0.8
				c0,0.3,0,0.5,0,0.9c0,0.5,0.1,1,0.2,1.5c0.1,0.5,0.3,0.9,0.6,1.2c0.3,0.3,0.6,0.6,1,0.8C904.2,452.3,904.6,452.4,905.2,452.4z"/>
		</g>
		<g class="st1">
			<path class="st2" d="M921.4,444.9c0,1.4-0.1,2.7-0.4,3.9s-0.6,2.4-1.1,3.4c-0.5,1-1,2-1.6,2.8s-1.2,1.6-1.9,2.1h-1.5
				c0.7-0.6,1.4-1.4,2-2.2c0.6-0.9,1.1-1.8,1.6-2.8c0.5-1,0.8-2,1.1-3.1c0.3-1.1,0.4-2.2,0.4-3.2V444c0-1.1-0.1-2.2-0.4-3.2
				c-0.3-1.1-0.6-2.1-1.1-3.1c-0.4-1-1-1.9-1.6-2.8c-0.6-0.9-1.3-1.6-2-2.3h1.5c0.7,0.6,1.3,1.3,1.9,2.1s1.1,1.8,1.6,2.8
				c0.5,1,0.8,2.2,1.1,3.4C921.2,442.2,921.4,443.5,921.4,444.9z"/>
		</g>
		<path id="SVGID_x5F_1_x5F_" class="st4" d="M791.6,457.2h8.4"/>
	</g>
</g>
</svg>
